<?xml version="1.0" standalone="no"?>
<!DOCTYPE svg PUBLIC "-//W3C//DTD SVG 20010904//EN"
        "http://www.w3.org/TR/2001/REC-SVG-20010904/DTD/svg10.dtd">
<svg version="1.0" xmlns="http://www.w3.org/2000/svg"
     width="128.000000pt" height="128.000000pt" viewBox="0 0 128.000000 128.000000"
     preserveAspectRatio="xMidYMid meet">
    <metadata>
        Created by potrace 1.16, written by Peter Selinger 2001-2019
    </metadata>
    <g transform="translate(0.000000,128.000000) scale(0.100000,-0.100000)"
       fill="#556080" stroke="none">
        <path d="M477 1264 c-218 -53 -403 -238 -461 -461 -19 -71 -21 -242 -5 -311
20 -83 94 -223 151 -286 l53 -58 120 66 c66 37 128 76 138 88 28 34 23 108
-13 165 -16 26 -30 52 -30 58 0 7 -12 34 -26 61 -22 42 -25 56 -20 109 4 33
10 105 14 160 8 112 26 155 81 192 67 45 203 53 289 17 81 -33 104 -76 114
-214 5 -58 11 -133 14 -167 5 -58 4 -63 -25 -94 -17 -17 -31 -37 -31 -44 0 -6
-16 -37 -35 -69 -27 -45 -35 -69 -35 -107 0 -66 20 -85 169 -160 l125 -63 52
58 c64 70 128 190 149 277 20 85 19 245 -1 322 -58 225 -245 410 -467 462 -77
18 -243 18 -320 -1z"/>
    </g>
</svg>
